<svg width="130" height="32" viewBox="0 0 130 32" fill="none" xmlns="http://www.w3.org/2000/svg">
<path fill-rule="evenodd" clip-rule="evenodd" d="M72.22 20.02C72.22 20.28 72.2 20.5401 72.12 20.7601C71.9426 21.2799 71.6052 21.7302 71.156 22.0463C70.7069 22.3625 70.1692 22.5284 69.62 22.52C68.6 22.52 67.79 21.9401 67.79 20.7001C67.79 18.8201 69.86 18.3 72.22 18.31V20.02ZM75.92 16.74C75.92 13.64 74.59 10.9 70.11 10.9C67.81 10.9 65.98 11.54 64.98 12.12L65.71 14.62C66.843 13.9481 68.1328 13.586 69.45 13.57C71.73 13.57 72.1 14.86 72.1 15.68V15.88C67.14 15.88 64 17.5901 64 21.0901C64 23.2301 65.6 25.23 68.38 25.23C70.08 25.23 71.51 24.55 72.37 23.46H72.45C72.45 23.46 73.02 25.83 76.15 24.92C75.98 23.93 75.92 22.8801 75.92 21.6201V16.74ZM30.71 20.02C30.71 20.28 30.69 20.5401 30.61 20.7601C30.4326 21.2799 30.0952 21.7302 29.646 22.0463C29.1969 22.3625 28.6592 22.5284 28.11 22.52C27.09 22.52 26.28 21.9401 26.28 20.7001C26.28 18.8201 28.35 18.3 30.71 18.31V20.02ZM34.41 16.74C34.41 13.64 33.09 10.9 28.61 10.9C26.31 10.9 24.47 11.54 23.47 12.12L24.2 14.62C25.3332 13.9485 26.6229 13.5865 27.94 13.57C30.22 13.57 30.59 14.86 30.59 15.68V15.88C25.63 15.88 22.49 17.5901 22.49 21.0901C22.49 23.2301 24.09 25.23 26.87 25.23C28.57 25.23 30 24.55 30.86 23.46H30.94C30.94 23.46 31.51 25.83 34.64 24.92C34.47 23.93 34.41 22.8801 34.41 21.6201V16.74ZM40.14 21.0401V6.68004H36.44V24.93H40.14V21.05M87.3 6.68004V20.14C87.3 22 87.65 23.3 88.4 24.09C89.05 24.79 90.12 25.24 91.41 25.24C92.51 25.24 93.58 25.04 94.09 24.84L94.05 21.9401C93.67 22.0401 93.23 22.11 92.64 22.11C91.38 22.11 90.95 21.31 90.95 19.64V14.49H94.18V10.99H90.95V6.67004H87.3M77.73 11.21V24.92H81.55V17.9C81.55 17.52 81.58 17.2 81.64 16.89C81.92 15.42 83.04 14.48 84.66 14.48C85.1 14.48 85.42 14.52 85.76 14.58V10.98C85.484 10.9213 85.2021 10.8944 84.92 10.9C83.49 10.9 81.87 11.82 81.19 13.8H81.09V11.2H77.73M42.3 11.2V24.92H46V16.88C46 16.5 46.05 16.1 46.18 15.76C46.48 14.95 47.24 14 48.44 14C49.94 14 50.65 15.27 50.65 17.1V24.92H54.37V16.78C54.37 16.42 54.42 15.98 54.53 15.67C54.676 15.187 54.9737 14.7638 55.3789 14.463C55.7841 14.1623 56.2754 13.9999 56.78 14C58.3 14 59.03 15.25 59.03 17.4V24.92H62.76V16.84C62.76 12.59 60.59 10.9 58.16 10.9C57.07 10.9 56.22 11.17 55.45 11.64C54.8 12.04 54.21 12.61 53.71 13.35H53.65C53.3513 12.6025 52.8286 11.9657 52.1536 11.5271C51.4786 11.0884 50.6844 10.8694 49.88 10.9C49.0772 10.8526 48.2771 11.0306 47.5703 11.4141C46.8634 11.7976 46.2779 12.3712 45.88 13.07H45.83V11.21H42.29" fill="white"/>
<path d="M0 6.67004L3.76 22.1C4.51413 24.3342 6.5 24.93 8.58 24.92C10.66 24.91 16.83 24.92 16.83 24.92C16.83 24.92 19.2246 24.5668 19.68 22.52L23.58 6.67004H19.68L18.04 14.56L17.2612 18.5C16.9312 22.6595 6.5 22.1699 6.5 18.5C6.18 16.6 6.03 16.5 5.57 14.2L4.1 6.67004H0Z" fill="white"/>
<path fill-rule="evenodd" clip-rule="evenodd" d="M114.2 10.6C114.94 10.6 115.54 10.21 115.63 9.72L116.35 1.48C116.35 0.67 115.4 0 114.2 0C113 0 112.05 0.67 112.05 1.48L112.78 9.72C112.86 10.22 113.47 10.59 114.2 10.59M109.75 13.17C110.12 12.53 110.09 11.81 109.7 11.49L102.93 6.75C102.23 6.34 101.18 6.83 100.58 7.87C99.98 8.91 100.08 10.07 100.78 10.47L108.28 13.96C108.75 14.13 109.38 13.8 109.75 13.16M118.65 13.16C119.02 13.8 119.65 14.13 120.13 13.96L127.62 10.47C128.32 10.07 128.42 8.91 127.83 7.87C127.23 6.83 126.17 6.34 125.47 6.75L118.7 11.49C118.32 11.81 118.29 12.53 118.66 13.17M114.2 20.87C114.94 20.87 115.54 21.26 115.63 21.75L116.35 29.99C116.35 30.8 115.4 31.47 114.2 31.47C113 31.47 112.05 30.8 112.05 29.99L112.78 21.75C112.86 21.25 113.47 20.88 114.2 20.88M118.65 18.31C119.02 17.67 119.65 17.34 120.13 17.51L127.62 21C128.32 21.4 128.42 22.57 127.83 23.6C127.23 24.64 126.17 25.13 125.47 24.72L118.7 19.98C118.32 19.66 118.29 18.94 118.66 18.31M109.75 18.31C110.12 18.94 110.09 19.66 109.7 19.98L102.93 24.72C102.23 25.12 101.18 24.64 100.58 23.6C99.98 22.56 100.08 21.4 100.78 21L108.28 17.51C108.75 17.34 109.38 17.67 109.75 18.31ZM129.2 24H129.27C129.35 24 129.42 23.97 129.42 23.9C129.42 23.84 129.38 23.8 129.28 23.8H129.2V24ZM129.2 24.36H129.04V23.71L129.29 23.69C129.42 23.69 129.47 23.71 129.52 23.74C129.56 23.77 129.59 23.82 129.59 23.88C129.59 23.96 129.53 24.01 129.45 24.04C129.51 24.06 129.55 24.12 129.57 24.2C129.59 24.3 129.6 24.34 129.62 24.36H129.46C129.44 24.34 129.42 24.28 129.4 24.21C129.39 24.14 129.35 24.11 129.27 24.11H129.19V24.37L129.2 24.36ZM129.3 23.5C129 23.5 128.79 23.74 128.79 24.03C128.79 24.32 129.01 24.55 129.3 24.55C129.59 24.55 129.8 24.32 129.8 24.03C129.804 23.9619 129.794 23.8936 129.771 23.8294C129.748 23.7653 129.711 23.7065 129.665 23.6569C129.618 23.6072 129.561 23.5677 129.499 23.5407C129.436 23.5137 129.368 23.4999 129.3 23.5ZM129.3 23.37C129.68 23.37 129.97 23.66 129.97 24.03C129.97 24.4 129.67 24.69 129.3 24.69C129.212 24.6927 129.124 24.6776 129.041 24.6456C128.959 24.6137 128.884 24.5655 128.82 24.5039C128.757 24.4424 128.707 24.3687 128.672 24.2873C128.638 24.2059 128.62 24.1184 128.62 24.03C128.62 23.66 128.92 23.37 129.3 23.37Z" fill="#F3B53B"/>
</svg>
